<?xml version="1.0" standalone="no"?><!DOCTYPE svg PUBLIC "-//W3C//DTD SVG 1.1//EN" "http://www.w3.org/Graphics/SVG/1.1/DTD/svg11.dtd"><svg t="1497754647512" class="icon" style="" viewBox="0 0 1024 1024" version="1.1" xmlns="http://www.w3.org/2000/svg" p-id="2603" xmlns:xlink="http://www.w3.org/1999/xlink" width="32" height="32"><defs><style type="text/css"></style></defs><path d="M402.773333 546.133333h133.12c0-30.72-13.653333-51.2-13.653333-51.2h-116.053333c3.413333-54.613333 3.413333-126.293333 6.826666-153.6h109.226667s0-47.786667-13.653333-47.786666H317.44s10.24-61.44 27.306667-88.746667c0 0-58.026667-3.413333-75.093334 75.093333s-51.2 122.88-54.613333 133.12 17.066667 3.413333 23.893333 0 47.786667-20.48 58.026667-71.68h58.026667c0 34.133333 3.413333 139.946667 3.413333 157.013334H238.933333c-17.066667 13.653333-23.893333 47.786667-23.893333 47.786666h139.946667c-6.826667 37.546667-17.066667 88.746667-30.72 116.053334-23.893333 40.96-34.133333 81.92-116.053334 146.773333 0 0-13.653333 10.24 27.306667 6.826667 40.96-3.413333 81.92-13.653333 105.813333-68.266667 13.653333-27.306667 27.306667-64.853333 40.96-102.4l116.053334 133.12s13.653333-37.546667 3.413333-75.093333l-85.333333-95.573334-27.306667 20.48c6.826667-27.306667 13.653333-54.613333 13.653333-81.92 0 3.413333 0 3.413333 0 0zM563.2 283.306667v464.213333h47.786667l20.48 54.613333 81.92-54.613333H819.2V283.306667h-256z m204.8 416.426666h-54.613333l-68.266667 44.373334-17.066667-44.373334H614.4V334.506667h157.013333l-3.413333 365.226666z" p-id="2604" fill="#006ce2"></path></svg>