<?xml version="1.0" standalone="no"?><!DOCTYPE svg PUBLIC "-//W3C//DTD SVG 1.1//EN" "http://www.w3.org/Graphics/SVG/1.1/DTD/svg11.dtd"><svg t="1497755227150" class="icon" style="" viewBox="0 0 1024 1024" version="1.1" xmlns="http://www.w3.org/2000/svg" p-id="10229" xmlns:xlink="http://www.w3.org/1999/xlink" width="32" height="32"><defs><style type="text/css"></style></defs><path d="M807.372729 717.978235 214.966445 717.978235c-12.153808 0-22.060435-9.903557-22.060435-22.049179L192.90601 326.271972c0-12.155854 9.906627-22.052249 22.060435-22.052249l592.407308 0c12.161994 0 22.060435 9.896394 22.060435 22.052249l0 369.658108C829.433164 708.074677 819.534723 717.978235 807.372729 717.978235zM217.889007 693.001377l586.56116 0L804.450167 329.200674 217.889007 329.200674 217.889007 693.001377z" p-id="10230" fill="#dd4b39"></path><path d="M807.372729 718.205409 214.966445 718.205409c-4.418636 0-8.696056-1.296529-12.3247-3.756557l-2.662643-18.376533 201.948455-201.913663 109.243053 109.215424 109.24203-109.215424 205.5464 201.703885-6.334265 18.61394C815.958268 716.937532 811.739177 718.205409 807.372729 718.205409zM401.926534 529.46886 237.668493 693.736111l546.511002-0.485047L620.411617 529.46886l-93.047186 93.049233c-8.636704 8.637728-23.76731 8.637728-32.405037 0L401.926534 529.46886z" p-id="10231" fill="#dd4b39"></path><path d="M511.169587 628.429733c-6.124488 0-11.887748-2.39556-16.20917-6.738471L199.979102 329.426825l1.908466-21.10876c3.823072-2.838651 8.338922-4.29277 13.078877-4.29277l592.407308 0c4.737908 0 9.239432 1.453095 13.07069 4.29277l3.390213 16.924461L527.364431 621.691261C523.049149 626.035196 517.280772 628.429733 511.169587 628.429733zM237.549789 328.954057 511.169587 602.566692l274.127358-274.133497L237.549789 328.954057z" p-id="10232" fill="#dd4b39"></path></svg>