<?xml version="1.0" standalone="no"?><!DOCTYPE svg PUBLIC "-//W3C//DTD SVG 1.1//EN" "http://www.w3.org/Graphics/SVG/1.1/DTD/svg11.dtd"><svg t="1497754910748" class="icon" style="" viewBox="0 0 1024 1024" version="1.1" xmlns="http://www.w3.org/2000/svg" p-id="7441" xmlns:xlink="http://www.w3.org/1999/xlink" width="32" height="32"><defs><style type="text/css"></style></defs><path d="M615.893333 553.514667c11.477333 0 20.992 5.674667 29.269334 16.896 8.192 11.306667 12.544 25.088 12.544 41.6 0 16.426667-4.352 30.336-12.544 41.514666-8.234667 11.306667-17.792 16.896-29.269334 16.896-11.861333 0-22.272-5.589333-30.506666-16.896-8.192-11.178667-12.544-25.088-12.544-41.514666 0-16.512 4.352-30.293333 12.544-41.6 8.192-11.264 18.602667-16.896 30.506666-16.896m146.773334-151.850667c31.829333 34.602667 48 76.586667 48 125.994667 0 31.914667-3.669333 60.714667-11.050667 86.314666-7.466667 25.472-16.810667 46.250667-27.904 62.250667a182.101333 182.101333 0 0 1-41.557333 42.197333 210.773333 210.773333 0 0 1-45.44 26.581334 233.173333 233.173333 0 0 1-47.402667 13.056 384 384 0 0 1-40.234667 5.248l-29.226666 0.597333-23.338667 0.64a749.525333 749.525333 0 0 1-65.024 0l-23.338667-0.64-29.226666-0.597333a382.549333 382.549333 0 0 1-40.234667-5.248 225.28 225.28 0 0 1-47.402667-13.056 208.554667 208.554667 0 0 1-45.397333-26.581334 181.461333 181.461333 0 0 1-41.6-42.197333c-11.136-16-20.437333-36.778667-27.904-62.250667-7.381333-25.6-11.050667-54.4-11.050667-86.314666 0-49.408 16.170667-91.434667 48-125.994667-3.498667-1.749333-3.626667-19.072-0.341333-51.925333a301.696 301.696 0 0 1 21.12-90.965334c39.850667 4.224 89.173333 26.837333 148.096 67.456 19.882667-5.077333 46.976-7.808 81.792-7.808 36.352 0 63.616 2.730667 81.834667 7.850667 26.837333-18.133333 52.48-32.896 77.013333-44.117333 24.917333-11.136 42.88-17.749333 54.144-19.498667l16.896-3.84c11.52 27.690667 18.517333 58.026667 21.162667 90.965333 3.242667 32.810667 3.114667 50.133333-0.384 51.882667m-249.386667 333.653333c72.021333 0 126.037333-8.618667 163.029333-25.898666 36.48-17.237333 55.125333-52.821333 55.125334-106.496 0-31.146667-11.648-57.173333-35.072-77.994667a78.72 78.72 0 0 0-42.197334-20.736c-16-2.602667-40.490667-2.602667-73.386666 0-32.810667 2.645333-55.381333 3.84-67.498667 3.84-16.426667 0-34.133333-0.768-56.277333-2.517333-22.186667-1.706667-39.594667-2.773333-52.181334-3.328a159.018667 159.018667 0 0 0-40.874666 4.608 81.621333 81.621333 0 0 0-36.394667 18.133333c-22.229333 20.010667-33.706667 45.952-33.706667 77.994667 0 53.674667 18.176 89.258667 54.613334 106.496 36.266667 17.28 90.154667 25.898667 162.218666 25.898666h2.602667m-103.850667-181.802666c11.434667 0 20.992 5.674667 29.226667 16.896 8.192 11.306667 12.544 25.088 12.544 41.6 0 16.426667-4.352 30.336-12.544 41.514666-8.192 11.306667-17.792 16.896-29.226667 16.896-11.904 0-22.272-5.589333-30.549333-16.896-8.192-11.178667-12.544-25.088-12.544-41.514666 0-16.512 4.352-30.293333 12.544-41.6 8.234667-11.264 18.602667-16.896 30.549333-16.896" p-id="7442"></path></svg>