<?xml version="1.0" standalone="no"?><!DOCTYPE svg PUBLIC "-//W3C//DTD SVG 1.1//EN" "http://www.w3.org/Graphics/SVG/1.1/DTD/svg11.dtd"><svg t="1501832322400" class="icon" style="" viewBox="0 0 1024 1024" version="1.1" xmlns="http://www.w3.org/2000/svg" p-id="3445" xmlns:xlink="http://www.w3.org/1999/xlink" width="32" height="32"><defs><style type="text/css"></style></defs><path d="M32.935673 0.998051 32.935673 1023.001949 32.935673 0.998051Z" p-id="3446"></path><path d="M64.873294 0.998051 64.873294 1023.001949 64.873294 0.998051Z" p-id="3447"></path><path d="M96.810916 0.998051 96.810916 1023.001949 96.810916 0.998051Z" p-id="3448"></path><path d="M128.748538 0.998051 128.748538 1023.001949 128.748538 0.998051Z" p-id="3449"></path><path d="M160.68616 0.998051 160.68616 1023.001949 160.68616 0.998051Z" p-id="3450"></path><path d="M192.623782 0.998051 192.623782 1023.001949 192.623782 0.998051Z" p-id="3451"></path><path d="M224.561404 0.998051 224.561404 1023.001949 224.561404 0.998051Z" p-id="3452"></path><path d="M256.499025 0.998051 256.499025 1023.001949 256.499025 0.998051Z" p-id="3453"></path><path d="M288.436647 0.998051 288.436647 1023.001949 288.436647 0.998051Z" p-id="3454"></path><path d="M320.374269 0.998051 320.374269 1023.001949 320.374269 0.998051Z" p-id="3455"></path><path d="M352.311891 0.998051 352.311891 1023.001949 352.311891 0.998051Z" p-id="3456"></path><path d="M384.249513 0.998051 384.249513 1023.001949 384.249513 0.998051Z" p-id="3457"></path><path d="M416.187135 0.998051 416.187135 1023.001949 416.187135 0.998051Z" p-id="3458"></path><path d="M448.124756 0.998051 448.124756 1023.001949 448.124756 0.998051Z" p-id="3459"></path><path d="M480.062378 0.998051 480.062378 1023.001949 480.062378 0.998051Z" p-id="3460"></path><path d="M512 0.998051 512 1023.001949 512 0.998051Z" p-id="3461"></path><path d="M543.937622 0.998051 543.937622 1023.001949 543.937622 0.998051Z" p-id="3462"></path><path d="M575.875244 0.998051 575.875244 1023.001949 575.875244 0.998051Z" p-id="3463"></path><path d="M607.812865 0.998051 607.812865 1023.001949 607.812865 0.998051Z" p-id="3464"></path><path d="M639.750487 0.998051 639.750487 1023.001949 639.750487 0.998051Z" p-id="3465"></path><path d="M671.688109 0.998051 671.688109 1023.001949 671.688109 0.998051Z" p-id="3466"></path><path d="M703.625731 0.998051 703.625731 1023.001949 703.625731 0.998051Z" p-id="3467"></path><path d="M735.563353 0.998051 735.563353 1023.001949 735.563353 0.998051Z" p-id="3468"></path><path d="M767.500975 0.998051 767.500975 1023.001949 767.500975 0.998051Z" p-id="3469"></path><path d="M799.438596 0.998051 799.438596 1023.001949 799.438596 0.998051Z" p-id="3470"></path><path d="M831.376218 0.998051 831.376218 1023.001949 831.376218 0.998051Z" p-id="3471"></path><path d="M863.31384 0.998051 863.31384 1023.001949 863.31384 0.998051Z" p-id="3472"></path><path d="M895.251462 0.998051 895.251462 1023.001949 895.251462 0.998051Z" p-id="3473"></path><path d="M927.189084 0.998051 927.189084 1023.001949 927.189084 0.998051Z" p-id="3474"></path><path d="M959.126706 0.998051 959.126706 1023.001949 959.126706 0.998051Z" p-id="3475"></path><path d="M991.064327 0.998051 991.064327 1023.001949 991.064327 0.998051Z" p-id="3476"></path><path d="M0.998051 32.935673 1023.001949 32.935673 0.998051 32.935673Z" p-id="3477"></path><path d="M0.998051 64.873294 1023.001949 64.873294 0.998051 64.873294Z" p-id="3478"></path><path d="M0.998051 96.810916 1023.001949 96.810916 0.998051 96.810916Z" p-id="3479"></path><path d="M0.998051 128.748538 1023.001949 128.748538 0.998051 128.748538Z" p-id="3480"></path><path d="M0.998051 160.68616 1023.001949 160.68616 0.998051 160.68616Z" p-id="3481"></path><path d="M0.998051 192.623782 1023.001949 192.623782 0.998051 192.623782Z" p-id="3482"></path><path d="M0.998051 224.561404 1023.001949 224.561404 0.998051 224.561404Z" p-id="3483"></path><path d="M0.998051 256.499025 1023.001949 256.499025 0.998051 256.499025Z" p-id="3484"></path><path d="M0.998051 288.436647 1023.001949 288.436647 0.998051 288.436647Z" p-id="3485"></path><path d="M0.998051 320.374269 1023.001949 320.374269 0.998051 320.374269Z" p-id="3486"></path><path d="M0.998051 352.311891 1023.001949 352.311891 0.998051 352.311891Z" p-id="3487"></path><path d="M0.998051 384.249513 1023.001949 384.249513 0.998051 384.249513Z" p-id="3488"></path><path d="M0.998051 416.187135 1023.001949 416.187135 0.998051 416.187135Z" p-id="3489"></path><path d="M0.998051 448.124756 1023.001949 448.124756 0.998051 448.124756Z" p-id="3490"></path><path d="M0.998051 480.062378 1023.001949 480.062378 0.998051 480.062378Z" p-id="3491"></path><path d="M0.998051 512 1023.001949 512 0.998051 512Z" p-id="3492"></path><path d="M0.998051 543.937622 1023.001949 543.937622 0.998051 543.937622Z" p-id="3493"></path><path d="M0.998051 575.875244 1023.001949 575.875244 0.998051 575.875244Z" p-id="3494"></path><path d="M0.998051 607.812865 1023.001949 607.812865 0.998051 607.812865Z" p-id="3495"></path><path d="M0.998051 639.750487 1023.001949 639.750487 0.998051 639.750487Z" p-id="3496"></path><path d="M0.998051 671.688109 1023.001949 671.688109 0.998051 671.688109Z" p-id="3497"></path><path d="M0.998051 703.625731 1023.001949 703.625731 0.998051 703.625731Z" p-id="3498"></path><path d="M0.998051 735.563353 1023.001949 735.563353 0.998051 735.563353Z" p-id="3499"></path><path d="M0.998051 767.500975 1023.001949 767.500975 0.998051 767.500975Z" p-id="3500"></path><path d="M0.998051 799.438596 1023.001949 799.438596 0.998051 799.438596Z" p-id="3501"></path><path d="M0.998051 831.376218 1023.001949 831.376218 0.998051 831.376218Z" p-id="3502"></path><path d="M0.998051 863.31384 1023.001949 863.31384 0.998051 863.31384Z" p-id="3503"></path><path d="M0.998051 895.251462 1023.001949 895.251462 0.998051 895.251462Z" p-id="3504"></path><path d="M0.998051 927.189084 1023.001949 927.189084 0.998051 927.189084Z" p-id="3505"></path><path d="M0.998051 959.126706 1023.001949 959.126706 0.998051 959.126706Z" p-id="3506"></path><path d="M0.998051 991.064327 1023.001949 991.064327 0.998051 991.064327Z" p-id="3507"></path><path d="M0.998051 128.748538l0 830.378168 1022.003899 0 0-830.378168-1022.003899 0zM959.126706 895.251462l-894.253411 0 0-702.62768 894.253411 0 0 702.62768zM703.625731 352.311891c0-52.916647 42.896218-95.812865 95.812865-95.812865s95.812865 42.896218 95.812865 95.812865c0 52.916647-42.896218 95.812865-95.812865 95.812865s-95.812865-42.896218-95.812865-95.812865zM895.251462 831.376218l-766.502924 0 191.625731-511.001949 255.500975 319.376218 127.750487-95.812865z" p-id="3508"></path></svg>