<?xml version="1.0" standalone="no"?><!DOCTYPE svg PUBLIC "-//W3C//DTD SVG 1.1//EN" "http://www.w3.org/Graphics/SVG/1.1/DTD/svg11.dtd"><svg t="1501827870469" class="icon" style="" viewBox="0 0 1024 1024" version="1.1" xmlns="http://www.w3.org/2000/svg" p-id="5702" xmlns:xlink="http://www.w3.org/1999/xlink" width="32" height="32"><defs><style type="text/css"></style></defs><path d="M1008 882.064 16 882.064 16 141.936l992 0L1008 882.064zM420.944 513.936l-249.936-213.12 0 412.688L420.944 513.936zM864.624 730.944 585.632 531.376l-71.68 62-77.504-67.808L174.88 736.752l-3.872 1.936 0 135.632 693.632 0L864.64 730.944zM820.064 149.68 211.68 149.68 512 446.128l1.936-1.936 1.936-1.936 3.872-1.936 3.872-3.872 3.872-1.936 9.68-9.68 5.808-5.808 5.808-5.808 5.808-5.808 7.744-5.808 15.504-15.504 9.68-7.744 9.68-9.68 9.68-9.68 11.632-9.68 21.312-21.312 25.184-25.184 13.568-13.568 13.568-11.632 13.568-15.504 13.568-13.568 15.504-15.504 17.44-15.504 15.504-17.44 17.44-15.504L820.064 149.68zM864.624 703.808 864.624 289.184l-265.44 230.56L864.624 703.808z" p-id="5703" fill="#d64934"></path></svg>