<?xml version="1.0" standalone="no"?><!DOCTYPE svg PUBLIC "-//W3C//DTD SVG 1.1//EN" "http://www.w3.org/Graphics/SVG/1.1/DTD/svg11.dtd"><svg t="1501827786101" class="icon" style="" viewBox="0 0 1024 1024" version="1.1" xmlns="http://www.w3.org/2000/svg" p-id="3037" xmlns:xlink="http://www.w3.org/1999/xlink" width="32" height="32"><defs><style type="text/css"></style></defs><path d="M836.855172 0v217.158621h132.413794zM439.613793 270.124138c14.124138 0 24.717241-1.765517 31.77931-3.531035 7.062069-1.765517 12.358621-5.296552 17.655173-10.593103 5.296552-5.296552 10.593103-14.124138 14.124138-24.717241 3.531034-10.593103 5.296552-24.717241 5.296552-40.606897 0-21.186207-3.531034-37.075862-10.593104-49.434483-7.062069-10.593103-14.124138-17.655172-24.717241-22.951724-7.062069-3.531034-19.42069-3.531034-35.310345-3.531034h-40.606897v153.6h42.372414zM277.186207 128.882759c-3.531034-5.296552-8.827586-8.827586-15.889655-10.593104-3.531034 0-8.827586-1.765517-24.717242-1.765517H187.144828v67.089655h49.434482c17.655172 0 28.248276-3.531034 35.310345-8.827586 8.827586-7.062069 10.593103-15.889655 10.593104-26.482759 0-8.827586-1.765517-14.124138-5.296552-19.420689z" fill="#EF464E" p-id="3038"></path><path d="M969.268966 296.606897V247.172414h-167.724138V0H54.731034v1024H971.034483l-1.765517-727.393103zM591.448276 79.448276h155.365517v35.310345h-116.524138v56.496551h100.634483v35.310345h-100.634483v97.103449h-38.841379V79.448276z m-231.282759 0h79.448276c17.655172 0 30.013793 1.765517 38.841379 3.531034 12.358621 3.531034 24.717241 8.827586 33.544828 15.889656 12.358621 10.593103 21.186207 22.951724 26.482759 38.841379 5.296552 15.889655 8.827586 33.544828 8.827586 52.965517 0 15.889655-1.765517 31.77931-5.296552 44.137931-3.531034 12.358621-8.827586 24.717241-15.889655 33.544828s-14.124138 15.889655-21.186207 21.186207c-7.062069 5.296552-17.655172 8.827586-26.482759 12.35862-10.593103 1.765517-22.951724 3.531034-35.310344 3.531035h-82.979311V79.448276z m-211.862069 0h86.510345c14.124138 0 26.482759 0 33.544828 1.765517 10.593103 1.765517 21.186207 5.296552 28.248276 10.593104 7.062069 5.296552 14.124138 12.358621 19.420689 22.951724 5.296552 8.827586 7.062069 19.42069 7.062069 31.77931 0 19.42069-7.062069 37.075862-19.420689 49.434483-12.358621 14.124138-35.310345 21.186207-67.089656 21.186207H187.144828v86.510345H148.303448V79.448276zM951.613793 1006.344828H72.386207V388.413793h879.227586v617.931035z" fill="#EF464E" p-id="3039"></path><path d="M672.662069 806.841379c-33.544828-1.765517-65.324138-15.889655-91.806897-37.075862-51.2 10.593103-98.868966 26.482759-146.537931 47.668966-38.841379 67.089655-74.151724 102.4-104.165517 102.4-7.062069 0-14.124138-1.765517-19.42069-5.296552-12.358621-5.296552-21.186207-19.42069-21.186206-33.544828 0-10.593103 1.765517-42.372414 120.055172-91.806896 26.482759-49.434483 47.668966-100.634483 65.324138-153.6-14.124138-30.013793-47.668966-102.4-24.717241-139.475862 7.062069-14.124138 22.951724-21.186207 38.841379-19.42069 12.358621 0 24.717241 5.296552 31.77931 15.889655 15.889655 22.951724 14.124138 68.855172-5.296552 137.710345 19.42069 37.075862 45.903448 70.62069 75.917242 98.868966 26.482759-5.296552 51.2-8.827586 77.682758-8.827587 58.262069 1.765517 67.089655 28.248276 65.324138 44.137932 0 42.372414-40.606897 42.372414-61.793103 42.372413zM326.62069 882.758621l3.531034-1.765518c17.655172-7.062069 30.013793-17.655172 40.606897-35.310344-17.655172 8.827586-33.544828 21.186207-44.137931 37.075862z m164.193103-370.758621h-3.531034c-1.765517 0-3.531034 0-5.296552 1.765517-5.296552 21.186207-1.765517 42.372414 7.062069 63.558621 7.062069-21.186207 8.827586-44.137931 1.765517-65.324138z m8.827586 180.082759l-1.765517 1.765517-1.765517-1.765517c-10.593103 28.248276-22.951724 56.496552-37.075862 84.744827l1.765517-1.765517v1.765517c28.248276-10.593103 54.731034-17.655172 84.744828-24.717241l-1.765518-1.765517h3.531035c-17.655172-15.889655-33.544828-37.075862-47.668966-58.262069z m167.724138 65.324138c-10.593103 0-21.186207 0-31.77931 1.765517 12.358621 5.296552 24.717241 8.827586 37.075862 10.593103 8.827586 1.765517 17.655172 0 24.717241-1.765517 0-5.296552-5.296552-10.593103-30.013793-10.593103z" fill="#EF464E" p-id="3040"></path></svg>